


<svg xmlns="http://www.w3.org/2000/svg" xmlns:xlink="http://www.w3.org/1999/xlink" width="500" zoomAndPan="magnify" viewBox="0 0 375 374.999991" height="500" preserveAspectRatio="xMidYMid meet" version="1.0"><defs><g/><clipPath id="ebc2162709"><path d="M 59 148.4375 L 115.902344 148.4375 L 115.902344 151 L 59 151 Z M 59 148.4375 " clip-rule="nonzero"/></clipPath><clipPath id="67053390ec"><path d="M 41.652344 167 L 98 167 L 98 170 L 41.652344 170 Z M 41.652344 167 " clip-rule="nonzero"/></clipPath><clipPath id="e1569a16f8"><path d="M 59 187 L 115.902344 187 L 115.902344 188.9375 L 59 188.9375 Z M 59 187 " clip-rule="nonzero"/></clipPath></defs><rect x="-37.5" width="450" fill="#ffffff" y="-37.499999" height="449.999989" fill-opacity="1"/><rect x="-37.5" width="450" fill="#ffffff" y="-37.499999" height="449.999989" fill-opacity="1"/><path fill="#d612d4" d="M 109.519531 155.054688 L 54.507812 154.175781 L 109.519531 153.300781 L 110.394531 153.285156 L 110.394531 155.066406 Z M 109.519531 155.054688 " fill-opacity="1" fill-rule="nonzero"/><path fill="#d612d4" d="M 105.460938 159.898438 L 50.449219 159.023438 L 105.460938 158.144531 L 106.335938 158.132812 L 106.335938 159.914062 Z M 105.460938 159.898438 " fill-opacity="1" fill-rule="nonzero"/><g clip-path="url(#ebc2162709)"><path fill="#d612d4" d="M 114.816406 150.207031 L 59.804688 149.328125 L 114.816406 148.453125 L 115.691406 148.4375 L 115.691406 150.21875 Z M 114.816406 150.207031 " fill-opacity="1" fill-rule="nonzero"/></g><path fill="#d612d4" d="M 100.40625 164.746094 L 45.394531 163.871094 L 100.40625 162.992188 L 101.28125 162.980469 L 101.28125 164.761719 Z M 100.40625 164.746094 " fill-opacity="1" fill-rule="nonzero"/><g clip-path="url(#67053390ec)"><path fill="#d612d4" d="M 96.703125 169.59375 L 41.695312 168.71875 L 96.703125 167.839844 L 97.582031 167.828125 L 97.582031 169.609375 Z M 96.703125 169.59375 " fill-opacity="1" fill-rule="nonzero"/></g><path fill="#d612d4" d="M 100.40625 174.441406 L 45.394531 173.566406 L 100.40625 172.6875 L 101.28125 172.675781 L 101.28125 174.457031 Z M 100.40625 174.441406 " fill-opacity="1" fill-rule="nonzero"/><path fill="#d612d4" d="M 105.460938 179.289062 L 50.449219 178.410156 L 105.460938 177.535156 L 106.335938 177.519531 L 106.335938 179.304688 Z M 105.460938 179.289062 " fill-opacity="1" fill-rule="nonzero"/><path fill="#d612d4" d="M 109.519531 184.136719 L 54.507812 183.257812 L 109.519531 182.382812 L 110.394531 182.367188 L 110.394531 184.148438 Z M 109.519531 184.136719 " fill-opacity="1" fill-rule="nonzero"/><g clip-path="url(#e1569a16f8)"><path fill="#d612d4" d="M 114.816406 188.984375 L 59.804688 188.105469 L 114.816406 187.230469 L 115.691406 187.214844 L 115.691406 188.996094 Z M 114.816406 188.984375 " fill-opacity="1" fill-rule="nonzero"/></g><g fill="#ffffff" fill-opacity="1"><g transform="translate(111.757804, 175.357115)"><g><path d="M 3.53125 -16.625 L 14.5625 -16.625 L 14.140625 -14.640625 L 8.796875 -14.640625 L 7.703125 -9.578125 L 12.171875 -9.578125 L 11.765625 -7.625 L 7.28125 -7.625 L 6.078125 -2.015625 L 11.421875 -2.015625 L 11.03125 0 L 0 0 Z M 3.53125 -16.625 "/></g></g></g><g fill="#ffffff" fill-opacity="1"><g transform="translate(124.932713, 175.357115)"><g><path d="M 10.140625 -11.390625 L 14.140625 -16.625 L 17.28125 -16.625 L 11.078125 -9.171875 L 14.984375 0 L 8.515625 0 L 6.28125 -5.21875 L 2.25 0 L -0.890625 0 L 5.296875 -7.5625 L 1.4375 -16.625 L 7.90625 -16.625 Z M 10.140625 -11.390625 "/></g></g></g><g fill="#ffffff" fill-opacity="1"><g transform="translate(140.700688, 175.357115)"><g><path d="M 8.40625 -7.171875 C 8.925781 -7.171875 9.363281 -7.390625 9.71875 -7.828125 C 10.082031 -8.265625 10.378906 -8.796875 10.609375 -9.421875 C 10.847656 -10.054688 11.019531 -10.710938 11.125 -11.390625 C 11.226562 -12.066406 11.28125 -12.660156 11.28125 -13.171875 C 11.28125 -13.640625 11.203125 -14.035156 11.046875 -14.359375 C 10.890625 -14.679688 10.550781 -14.84375 10.03125 -14.84375 L 8.84375 -14.84375 L 7.203125 -7.171875 Z M 6.828125 -5.5 L 5.65625 0 L 0 0 L 3.53125 -16.625 L 9.578125 -16.625 C 10.578125 -16.625 11.484375 -16.570312 12.296875 -16.46875 C 13.117188 -16.363281 13.828125 -16.15625 14.421875 -15.84375 C 15.015625 -15.53125 15.476562 -15.082031 15.8125 -14.5 C 16.144531 -13.914062 16.3125 -13.132812 16.3125 -12.15625 C 16.3125 -11.25 16.164062 -10.390625 15.875 -9.578125 C 15.59375 -8.765625 15.128906 -8.054688 14.484375 -7.453125 C 13.847656 -6.847656 13.023438 -6.367188 12.015625 -6.015625 C 11.003906 -5.671875 9.773438 -5.5 8.328125 -5.5 Z M 6.828125 -5.5 "/></g></g></g><g fill="#ffffff" fill-opacity="1"><g transform="translate(156.416282, 175.357115)"><g><path d="M 16.3125 -12.671875 C 16.3125 -11.640625 16.023438 -10.6875 15.453125 -9.8125 C 14.878906 -8.945312 13.925781 -8.285156 12.59375 -7.828125 L 15.640625 0 L 9.796875 0 L 7.484375 -7.25 L 7.203125 -7.25 L 5.65625 0 L 0 0 L 3.53125 -16.625 L 10.421875 -16.625 C 11.222656 -16.625 11.984375 -16.578125 12.703125 -16.484375 C 13.421875 -16.390625 14.046875 -16.195312 14.578125 -15.90625 C 15.109375 -15.625 15.53125 -15.222656 15.84375 -14.703125 C 16.15625 -14.191406 16.3125 -13.515625 16.3125 -12.671875 Z M 8.765625 -8.9375 C 9.222656 -8.9375 9.613281 -9.085938 9.9375 -9.390625 C 10.257812 -9.691406 10.519531 -10.0625 10.71875 -10.5 C 10.925781 -10.9375 11.070312 -11.40625 11.15625 -11.90625 C 11.238281 -12.40625 11.28125 -12.835938 11.28125 -13.203125 C 11.28125 -13.648438 11.203125 -14.035156 11.046875 -14.359375 C 10.890625 -14.679688 10.550781 -14.84375 10.03125 -14.84375 L 8.84375 -14.84375 L 7.546875 -8.9375 Z M 8.765625 -8.9375 "/></g></g></g><g fill="#ffffff" fill-opacity="1"><g transform="translate(172.996232, 175.357115)"><g><path d="M 3.53125 -16.625 L 14.5625 -16.625 L 14.140625 -14.640625 L 8.796875 -14.640625 L 7.703125 -9.578125 L 12.171875 -9.578125 L 11.765625 -7.625 L 7.28125 -7.625 L 6.078125 -2.015625 L 11.421875 -2.015625 L 11.03125 0 L 0 0 Z M 3.53125 -16.625 "/></g></g></g><g fill="#ffffff" fill-opacity="1"><g transform="translate(186.171141, 175.357115)"><g><path d="M 10.3125 -11.8125 C 10.363281 -12.070312 10.390625 -12.429688 10.390625 -12.890625 C 10.390625 -13.148438 10.375 -13.40625 10.34375 -13.65625 C 10.3125 -13.90625 10.25 -14.128906 10.15625 -14.328125 C 10.070312 -14.535156 9.941406 -14.695312 9.765625 -14.8125 C 9.585938 -14.925781 9.363281 -14.984375 9.09375 -14.984375 C 8.769531 -14.984375 8.476562 -14.910156 8.21875 -14.765625 C 7.957031 -14.628906 7.726562 -14.453125 7.53125 -14.234375 C 7.332031 -14.015625 7.175781 -13.757812 7.0625 -13.46875 C 6.945312 -13.1875 6.890625 -12.882812 6.890625 -12.5625 C 6.890625 -12.113281 7.003906 -11.765625 7.234375 -11.515625 C 7.472656 -11.273438 7.785156 -11.078125 8.171875 -10.921875 C 8.554688 -10.765625 8.992188 -10.632812 9.484375 -10.53125 C 9.972656 -10.425781 10.476562 -10.300781 11 -10.15625 C 11.4375 -10.039062 11.875 -9.882812 12.3125 -9.6875 C 12.75 -9.5 13.132812 -9.242188 13.46875 -8.921875 C 13.8125 -8.597656 14.085938 -8.175781 14.296875 -7.65625 C 14.503906 -7.144531 14.609375 -6.503906 14.609375 -5.734375 C 14.609375 -4.628906 14.390625 -3.703125 13.953125 -2.953125 C 13.515625 -2.203125 12.910156 -1.59375 12.140625 -1.125 C 11.378906 -0.65625 10.46875 -0.316406 9.40625 -0.109375 C 8.351562 0.0976562 7.207031 0.203125 5.96875 0.203125 C 4.707031 0.203125 3.679688 0.125 2.890625 -0.03125 C 2.097656 -0.195312 1.472656 -0.378906 1.015625 -0.578125 C 0.472656 -0.804688 0.0703125 -1.066406 -0.1875 -1.359375 L 0.703125 -4.953125 L 5.3125 -4.953125 C 5.300781 -4.796875 5.285156 -4.582031 5.265625 -4.3125 C 5.242188 -4.039062 5.234375 -3.828125 5.234375 -3.671875 C 5.234375 -3.460938 5.257812 -3.242188 5.3125 -3.015625 C 5.363281 -2.785156 5.445312 -2.570312 5.5625 -2.375 C 5.675781 -2.1875 5.835938 -2.03125 6.046875 -1.90625 C 6.253906 -1.789062 6.515625 -1.734375 6.828125 -1.734375 C 7.179688 -1.734375 7.492188 -1.8125 7.765625 -1.96875 C 8.035156 -2.125 8.257812 -2.316406 8.4375 -2.546875 C 8.625 -2.785156 8.765625 -3.046875 8.859375 -3.328125 C 8.960938 -3.617188 9.015625 -3.90625 9.015625 -4.1875 C 9.015625 -4.570312 8.921875 -4.894531 8.734375 -5.15625 C 8.546875 -5.414062 8.296875 -5.640625 7.984375 -5.828125 C 7.671875 -6.015625 7.304688 -6.171875 6.890625 -6.296875 C 6.484375 -6.429688 6.0625 -6.566406 5.625 -6.703125 C 5.207031 -6.828125 4.765625 -6.972656 4.296875 -7.140625 C 3.835938 -7.316406 3.414062 -7.5625 3.03125 -7.875 C 2.65625 -8.195312 2.335938 -8.597656 2.078125 -9.078125 C 1.828125 -9.554688 1.703125 -10.171875 1.703125 -10.921875 C 1.703125 -12.035156 1.984375 -12.972656 2.546875 -13.734375 C 3.117188 -14.492188 3.835938 -15.109375 4.703125 -15.578125 C 5.566406 -16.046875 6.515625 -16.378906 7.546875 -16.578125 C 8.578125 -16.785156 9.550781 -16.890625 10.46875 -16.890625 C 11.695312 -16.890625 12.75 -16.742188 13.625 -16.453125 C 14.507812 -16.171875 15.179688 -15.835938 15.640625 -15.453125 L 14.671875 -11.8125 Z M 10.3125 -11.8125 "/></g></g></g><g fill="#ffffff" fill-opacity="1"><g transform="translate(201.546218, 175.357115)"><g><path d="M 10.3125 -11.8125 C 10.363281 -12.070312 10.390625 -12.429688 10.390625 -12.890625 C 10.390625 -13.148438 10.375 -13.40625 10.34375 -13.65625 C 10.3125 -13.90625 10.25 -14.128906 10.15625 -14.328125 C 10.070312 -14.535156 9.941406 -14.695312 9.765625 -14.8125 C 9.585938 -14.925781 9.363281 -14.984375 9.09375 -14.984375 C 8.769531 -14.984375 8.476562 -14.910156 8.21875 -14.765625 C 7.957031 -14.628906 7.726562 -14.453125 7.53125 -14.234375 C 7.332031 -14.015625 7.175781 -13.757812 7.0625 -13.46875 C 6.945312 -13.1875 6.890625 -12.882812 6.890625 -12.5625 C 6.890625 -12.113281 7.003906 -11.765625 7.234375 -11.515625 C 7.472656 -11.273438 7.785156 -11.078125 8.171875 -10.921875 C 8.554688 -10.765625 8.992188 -10.632812 9.484375 -10.53125 C 9.972656 -10.425781 10.476562 -10.300781 11 -10.15625 C 11.4375 -10.039062 11.875 -9.882812 12.3125 -9.6875 C 12.75 -9.5 13.132812 -9.242188 13.46875 -8.921875 C 13.8125 -8.597656 14.085938 -8.175781 14.296875 -7.65625 C 14.503906 -7.144531 14.609375 -6.503906 14.609375 -5.734375 C 14.609375 -4.628906 14.390625 -3.703125 13.953125 -2.953125 C 13.515625 -2.203125 12.910156 -1.59375 12.140625 -1.125 C 11.378906 -0.65625 10.46875 -0.316406 9.40625 -0.109375 C 8.351562 0.0976562 7.207031 0.203125 5.96875 0.203125 C 4.707031 0.203125 3.679688 0.125 2.890625 -0.03125 C 2.097656 -0.195312 1.472656 -0.378906 1.015625 -0.578125 C 0.472656 -0.804688 0.0703125 -1.066406 -0.1875 -1.359375 L 0.703125 -4.953125 L 5.3125 -4.953125 C 5.300781 -4.796875 5.285156 -4.582031 5.265625 -4.3125 C 5.242188 -4.039062 5.234375 -3.828125 5.234375 -3.671875 C 5.234375 -3.460938 5.257812 -3.242188 5.3125 -3.015625 C 5.363281 -2.785156 5.445312 -2.570312 5.5625 -2.375 C 5.675781 -2.1875 5.835938 -2.03125 6.046875 -1.90625 C 6.253906 -1.789062 6.515625 -1.734375 6.828125 -1.734375 C 7.179688 -1.734375 7.492188 -1.8125 7.765625 -1.96875 C 8.035156 -2.125 8.257812 -2.316406 8.4375 -2.546875 C 8.625 -2.785156 8.765625 -3.046875 8.859375 -3.328125 C 8.960938 -3.617188 9.015625 -3.90625 9.015625 -4.1875 C 9.015625 -4.570312 8.921875 -4.894531 8.734375 -5.15625 C 8.546875 -5.414062 8.296875 -5.640625 7.984375 -5.828125 C 7.671875 -6.015625 7.304688 -6.171875 6.890625 -6.296875 C 6.484375 -6.429688 6.0625 -6.566406 5.625 -6.703125 C 5.207031 -6.828125 4.765625 -6.972656 4.296875 -7.140625 C 3.835938 -7.316406 3.414062 -7.5625 3.03125 -7.875 C 2.65625 -8.195312 2.335938 -8.597656 2.078125 -9.078125 C 1.828125 -9.554688 1.703125 -10.171875 1.703125 -10.921875 C 1.703125 -12.035156 1.984375 -12.972656 2.546875 -13.734375 C 3.117188 -14.492188 3.835938 -15.109375 4.703125 -15.578125 C 5.566406 -16.046875 6.515625 -16.378906 7.546875 -16.578125 C 8.578125 -16.785156 9.550781 -16.890625 10.46875 -16.890625 C 11.695312 -16.890625 12.75 -16.742188 13.625 -16.453125 C 14.507812 -16.171875 15.179688 -15.835938 15.640625 -15.453125 L 14.671875 -11.8125 Z M 10.3125 -11.8125 "/></g></g></g><g fill="#ffffff" fill-opacity="1"><g transform="translate(216.921295, 175.357115)"><g/></g></g><g fill="#ffffff" fill-opacity="1"><g transform="translate(221.924081, 175.357115)"><g><path d="M 16.3125 -12.671875 C 16.3125 -11.640625 16.023438 -10.6875 15.453125 -9.8125 C 14.878906 -8.945312 13.925781 -8.285156 12.59375 -7.828125 L 15.640625 0 L 9.796875 0 L 7.484375 -7.25 L 7.203125 -7.25 L 5.65625 0 L 0 0 L 3.53125 -16.625 L 10.421875 -16.625 C 11.222656 -16.625 11.984375 -16.578125 12.703125 -16.484375 C 13.421875 -16.390625 14.046875 -16.195312 14.578125 -15.90625 C 15.109375 -15.625 15.53125 -15.222656 15.84375 -14.703125 C 16.15625 -14.191406 16.3125 -13.515625 16.3125 -12.671875 Z M 8.765625 -8.9375 C 9.222656 -8.9375 9.613281 -9.085938 9.9375 -9.390625 C 10.257812 -9.691406 10.519531 -10.0625 10.71875 -10.5 C 10.925781 -10.9375 11.070312 -11.40625 11.15625 -11.90625 C 11.238281 -12.40625 11.28125 -12.835938 11.28125 -13.203125 C 11.28125 -13.648438 11.203125 -14.035156 11.046875 -14.359375 C 10.890625 -14.679688 10.550781 -14.84375 10.03125 -14.84375 L 8.84375 -14.84375 L 7.546875 -8.9375 Z M 8.765625 -8.9375 "/></g></g></g><g fill="#ffffff" fill-opacity="1"><g transform="translate(238.504031, 175.357115)"><g><path d="M 3.53125 -16.625 L 14.5625 -16.625 L 14.140625 -14.640625 L 8.796875 -14.640625 L 7.703125 -9.578125 L 12.171875 -9.578125 L 11.765625 -7.625 L 7.28125 -7.625 L 6.078125 -2.015625 L 11.421875 -2.015625 L 11.03125 0 L 0 0 Z M 3.53125 -16.625 "/></g></g></g><g fill="#ffffff" fill-opacity="1"><g transform="translate(251.678939, 175.357115)"><g><path d="M 8.40625 -7.171875 C 8.925781 -7.171875 9.363281 -7.390625 9.71875 -7.828125 C 10.082031 -8.265625 10.378906 -8.796875 10.609375 -9.421875 C 10.847656 -10.054688 11.019531 -10.710938 11.125 -11.390625 C 11.226562 -12.066406 11.28125 -12.660156 11.28125 -13.171875 C 11.28125 -13.640625 11.203125 -14.035156 11.046875 -14.359375 C 10.890625 -14.679688 10.550781 -14.84375 10.03125 -14.84375 L 8.84375 -14.84375 L 7.203125 -7.171875 Z M 6.828125 -5.5 L 5.65625 0 L 0 0 L 3.53125 -16.625 L 9.578125 -16.625 C 10.578125 -16.625 11.484375 -16.570312 12.296875 -16.46875 C 13.117188 -16.363281 13.828125 -16.15625 14.421875 -15.84375 C 15.015625 -15.53125 15.476562 -15.082031 15.8125 -14.5 C 16.144531 -13.914062 16.3125 -13.132812 16.3125 -12.15625 C 16.3125 -11.25 16.164062 -10.390625 15.875 -9.578125 C 15.59375 -8.765625 15.128906 -8.054688 14.484375 -7.453125 C 13.847656 -6.847656 13.023438 -6.367188 12.015625 -6.015625 C 11.003906 -5.671875 9.773438 -5.5 8.328125 -5.5 Z M 6.828125 -5.5 "/></g></g></g><g fill="#ffffff" fill-opacity="1"><g transform="translate(267.394533, 175.357115)"><g><path d="M 10.765625 -16.890625 C 12.265625 -16.890625 13.476562 -16.695312 14.40625 -16.3125 C 15.34375 -15.925781 16.082031 -15.332031 16.625 -14.53125 C 16.976562 -13.988281 17.25 -13.375 17.4375 -12.6875 C 17.632812 -12.007812 17.734375 -11.226562 17.734375 -10.34375 C 17.734375 -9.570312 17.660156 -8.800781 17.515625 -8.03125 C 17.378906 -7.269531 17.179688 -6.535156 16.921875 -5.828125 C 16.671875 -5.117188 16.367188 -4.453125 16.015625 -3.828125 C 15.660156 -3.210938 15.265625 -2.671875 14.828125 -2.203125 C 14.003906 -1.304688 13.054688 -0.679688 11.984375 -0.328125 C 10.910156 0.0234375 9.585938 0.203125 8.015625 0.203125 C 6.492188 0.203125 5.269531 0.046875 4.34375 -0.265625 C 3.414062 -0.578125 2.679688 -1.082031 2.140625 -1.78125 C 1.765625 -2.269531 1.46875 -2.890625 1.25 -3.640625 C 1.03125 -4.390625 0.921875 -5.332031 0.921875 -6.46875 C 0.921875 -8.40625 1.265625 -10.132812 1.953125 -11.65625 C 2.640625 -13.1875 3.617188 -14.398438 4.890625 -15.296875 C 5.660156 -15.835938 6.515625 -16.238281 7.453125 -16.5 C 8.398438 -16.757812 9.503906 -16.890625 10.765625 -16.890625 Z M 7.796875 -1.625 C 8.203125 -1.625 8.582031 -1.800781 8.9375 -2.15625 C 9.300781 -2.519531 9.632812 -3 9.9375 -3.59375 C 10.238281 -4.195312 10.515625 -4.882812 10.765625 -5.65625 C 11.023438 -6.425781 11.238281 -7.21875 11.40625 -8.03125 C 11.582031 -8.851562 11.71875 -9.671875 11.8125 -10.484375 C 11.914062 -11.296875 11.96875 -12.035156 11.96875 -12.703125 C 11.96875 -13.609375 11.875 -14.226562 11.6875 -14.5625 C 11.507812 -14.90625 11.242188 -15.078125 10.890625 -15.078125 C 10.492188 -15.078125 10.109375 -14.898438 9.734375 -14.546875 C 9.367188 -14.203125 9.023438 -13.738281 8.703125 -13.15625 C 8.378906 -12.570312 8.09375 -11.898438 7.84375 -11.140625 C 7.59375 -10.378906 7.375 -9.597656 7.1875 -8.796875 C 7 -7.992188 6.859375 -7.195312 6.765625 -6.40625 C 6.671875 -5.625 6.625 -4.90625 6.625 -4.25 C 6.625 -3.25 6.734375 -2.5625 6.953125 -2.1875 C 7.171875 -1.8125 7.453125 -1.625 7.796875 -1.625 Z M 7.796875 -1.625 "/></g></g></g><g fill="#ffffff" fill-opacity="1"><g transform="translate(285.336499, 175.357115)"><g><path d="M 16.3125 -12.671875 C 16.3125 -11.640625 16.023438 -10.6875 15.453125 -9.8125 C 14.878906 -8.945312 13.925781 -8.285156 12.59375 -7.828125 L 15.640625 0 L 9.796875 0 L 7.484375 -7.25 L 7.203125 -7.25 L 5.65625 0 L 0 0 L 3.53125 -16.625 L 10.421875 -16.625 C 11.222656 -16.625 11.984375 -16.578125 12.703125 -16.484375 C 13.421875 -16.390625 14.046875 -16.195312 14.578125 -15.90625 C 15.109375 -15.625 15.53125 -15.222656 15.84375 -14.703125 C 16.15625 -14.191406 16.3125 -13.515625 16.3125 -12.671875 Z M 8.765625 -8.9375 C 9.222656 -8.9375 9.613281 -9.085938 9.9375 -9.390625 C 10.257812 -9.691406 10.519531 -10.0625 10.71875 -10.5 C 10.925781 -10.9375 11.070312 -11.40625 11.15625 -11.90625 C 11.238281 -12.40625 11.28125 -12.835938 11.28125 -13.203125 C 11.28125 -13.648438 11.203125 -14.035156 11.046875 -14.359375 C 10.890625 -14.679688 10.550781 -14.84375 10.03125 -14.84375 L 8.84375 -14.84375 L 7.546875 -8.9375 Z M 8.765625 -8.9375 "/></g></g></g><g fill="#ffffff" fill-opacity="1"><g transform="translate(301.916449, 175.357115)"><g><path d="M 15.953125 -14.640625 L 11.734375 -14.640625 L 8.609375 0 L 2.953125 0 L 6.078125 -14.640625 L 1.90625 -14.640625 L 2.390625 -16.625 L 16.390625 -16.625 Z M 15.953125 -14.640625 "/></g></g></g><g fill="#ffffff" fill-opacity="1"><g transform="translate(316.453374, 175.357115)"><g><path d="M 10.3125 -11.8125 C 10.363281 -12.070312 10.390625 -12.429688 10.390625 -12.890625 C 10.390625 -13.148438 10.375 -13.40625 10.34375 -13.65625 C 10.3125 -13.90625 10.25 -14.128906 10.15625 -14.328125 C 10.070312 -14.535156 9.941406 -14.695312 9.765625 -14.8125 C 9.585938 -14.925781 9.363281 -14.984375 9.09375 -14.984375 C 8.769531 -14.984375 8.476562 -14.910156 8.21875 -14.765625 C 7.957031 -14.628906 7.726562 -14.453125 7.53125 -14.234375 C 7.332031 -14.015625 7.175781 -13.757812 7.0625 -13.46875 C 6.945312 -13.1875 6.890625 -12.882812 6.890625 -12.5625 C 6.890625 -12.113281 7.003906 -11.765625 7.234375 -11.515625 C 7.472656 -11.273438 7.785156 -11.078125 8.171875 -10.921875 C 8.554688 -10.765625 8.992188 -10.632812 9.484375 -10.53125 C 9.972656 -10.425781 10.476562 -10.300781 11 -10.15625 C 11.4375 -10.039062 11.875 -9.882812 12.3125 -9.6875 C 12.75 -9.5 13.132812 -9.242188 13.46875 -8.921875 C 13.8125 -8.597656 14.085938 -8.175781 14.296875 -7.65625 C 14.503906 -7.144531 14.609375 -6.503906 14.609375 -5.734375 C 14.609375 -4.628906 14.390625 -3.703125 13.953125 -2.953125 C 13.515625 -2.203125 12.910156 -1.59375 12.140625 -1.125 C 11.378906 -0.65625 10.46875 -0.316406 9.40625 -0.109375 C 8.351562 0.0976562 7.207031 0.203125 5.96875 0.203125 C 4.707031 0.203125 3.679688 0.125 2.890625 -0.03125 C 2.097656 -0.195312 1.472656 -0.378906 1.015625 -0.578125 C 0.472656 -0.804688 0.0703125 -1.066406 -0.1875 -1.359375 L 0.703125 -4.953125 L 5.3125 -4.953125 C 5.300781 -4.796875 5.285156 -4.582031 5.265625 -4.3125 C 5.242188 -4.039062 5.234375 -3.828125 5.234375 -3.671875 C 5.234375 -3.460938 5.257812 -3.242188 5.3125 -3.015625 C 5.363281 -2.785156 5.445312 -2.570312 5.5625 -2.375 C 5.675781 -2.1875 5.835938 -2.03125 6.046875 -1.90625 C 6.253906 -1.789062 6.515625 -1.734375 6.828125 -1.734375 C 7.179688 -1.734375 7.492188 -1.8125 7.765625 -1.96875 C 8.035156 -2.125 8.257812 -2.316406 8.4375 -2.546875 C 8.625 -2.785156 8.765625 -3.046875 8.859375 -3.328125 C 8.960938 -3.617188 9.015625 -3.90625 9.015625 -4.1875 C 9.015625 -4.570312 8.921875 -4.894531 8.734375 -5.15625 C 8.546875 -5.414062 8.296875 -5.640625 7.984375 -5.828125 C 7.671875 -6.015625 7.304688 -6.171875 6.890625 -6.296875 C 6.484375 -6.429688 6.0625 -6.566406 5.625 -6.703125 C 5.207031 -6.828125 4.765625 -6.972656 4.296875 -7.140625 C 3.835938 -7.316406 3.414062 -7.5625 3.03125 -7.875 C 2.65625 -8.195312 2.335938 -8.597656 2.078125 -9.078125 C 1.828125 -9.554688 1.703125 -10.171875 1.703125 -10.921875 C 1.703125 -12.035156 1.984375 -12.972656 2.546875 -13.734375 C 3.117188 -14.492188 3.835938 -15.109375 4.703125 -15.578125 C 5.566406 -16.046875 6.515625 -16.378906 7.546875 -16.578125 C 8.578125 -16.785156 9.550781 -16.890625 10.46875 -16.890625 C 11.695312 -16.890625 12.75 -16.742188 13.625 -16.453125 C 14.507812 -16.171875 15.179688 -15.835938 15.640625 -15.453125 L 14.671875 -11.8125 Z M 10.3125 -11.8125 "/></g></g></g></svg>