<svg xmlns="http://www.w3.org/2000/svg" xmlns:xlink="http://www.w3.org/1999/xlink" width="500" zoomAndPan="magnify" viewBox="0 0 375 374.999991" height="500" preserveAspectRatio="xMidYMid meet" version="1.0"><defs><clipPath id="93bbae964b"><path d="M 58.4375 98.75 L 334.707031 98.75 L 334.707031 276.25 L 58.4375 276.25 Z M 58.4375 98.75 " clip-rule="nonzero"/></clipPath><clipPath id="0a955f6400"><path d="M 58.574219 181.238281 C 67.050781 157.386719 74.25 154.539062 78.976562 150.488281 C 83.398438 146.738281 86.925781 142.613281 91.199219 139.011719 C 95.476562 135.414062 102.148438 131.0625 104.699219 128.886719 C 105.75 127.914062 106.425781 127.386719 106.875 126.636719 C 107.175781 126.1875 107.023438 125.960938 107.324219 125.289062 C 108.375 123.261719 113.25 115.6875 115.574219 113.738281 C 116.699219 112.761719 118.050781 112.914062 118.574219 112.238281 C 119.101562 111.636719 118.875 110.8125 119.101562 110.0625 C 119.476562 109.085938 120.074219 107.960938 120.75 106.988281 C 121.351562 106.085938 122.101562 105.1875 123 104.4375 C 123.824219 103.6875 124.800781 103.085938 125.773438 102.5625 C 126.75 102.039062 127.875 101.585938 129 101.363281 C 130.050781 101.0625 132.375 100.914062 132.375 100.914062 C 132.375 100.914062 135.824219 100.835938 138.148438 100.835938 C 141.898438 100.761719 147.601562 100.539062 152.398438 100.460938 C 157.425781 100.386719 162.601562 100.3125 167.699219 100.164062 C 172.875 100.085938 178.050781 100.011719 183.148438 99.9375 C 188.175781 99.863281 192.898438 99.789062 197.925781 99.710938 C 203.175781 99.636719 208.574219 99.5625 213.898438 99.488281 C 219.300781 99.414062 224.773438 99.335938 230.101562 99.261719 C 235.273438 99.261719 240.375 99.1875 245.550781 99.113281 C 250.726562 99.113281 256.050781 99.039062 261.148438 99.039062 C 266.101562 98.960938 270.75 98.960938 275.625 98.960938 C 280.5 98.960938 285.375 98.960938 290.476562 98.960938 C 295.875 98.960938 302.101562 99.039062 307.125 98.960938 C 311.25 98.960938 318.449219 98.886719 318.449219 98.886719 C 318.449219 98.886719 319.726562 99.039062 320.398438 99.113281 C 321 99.1875 322.273438 99.335938 322.351562 99.335938 C 322.351562 99.335938 323.550781 99.789062 324.148438 100.085938 C 324.75 100.3125 325.949219 100.761719 325.949219 100.761719 C 325.949219 100.761719 327 101.511719 327.601562 101.8125 C 328.125 102.1875 329.175781 102.9375 329.175781 102.9375 C 329.175781 102.9375 330 103.914062 330.449219 104.4375 C 330.898438 104.886719 331.726562 105.863281 331.726562 105.863281 C 331.800781 105.863281 332.324219 106.988281 332.625 107.585938 C 332.925781 108.1875 333.523438 109.3125 333.523438 109.3125 C 333.601562 109.3125 333.898438 110.585938 334.050781 111.1875 C 334.199219 111.863281 334.5 113.0625 334.5 113.136719 C 334.5 113.136719 334.5 114.414062 334.5 115.085938 C 334.5 115.6875 334.5 116.960938 334.5 116.960938 C 334.5 116.960938 334.5 116.960938 334.5 117.039062 C 334.5 117.039062 334.199219 118.238281 334.050781 118.914062 C 333.898438 119.511719 333.601562 120.789062 333.523438 120.789062 C 333.523438 120.789062 332.925781 121.914062 332.625 122.511719 C 332.324219 123.113281 331.800781 124.238281 331.726562 124.238281 C 331.726562 124.238281 330.898438 125.210938 330.449219 125.664062 C 330 126.1875 329.175781 127.164062 329.175781 127.164062 C 329.175781 127.164062 328.125 127.914062 327.601562 128.289062 C 327 128.585938 325.949219 129.335938 325.949219 129.335938 C 325.949219 129.335938 324.75 129.789062 324.148438 130.085938 C 323.550781 130.3125 322.351562 130.761719 322.351562 130.761719 C 322.273438 130.761719 321 130.914062 320.398438 130.988281 C 319.726562 131.0625 318.449219 131.210938 318.449219 131.210938 C 318.449219 131.210938 312.375 140.136719 309.523438 144.414062 C 306.824219 148.386719 304.5 152.210938 301.574219 155.960938 C 298.574219 159.863281 295.125 163.6875 291.601562 167.136719 C 288 170.585938 283.425781 173.585938 280.125 176.8125 C 277.351562 179.511719 273.523438 182.511719 272.851562 184.761719 C 272.398438 186.113281 272.773438 186.9375 273.300781 188.511719 C 274.425781 191.738281 278.25 198.488281 281.550781 202.539062 C 284.699219 206.4375 288.824219 209.0625 292.574219 212.511719 C 296.476562 216.113281 300.375 220.386719 304.351562 223.6875 C 308.101562 226.835938 312.074219 229.011719 315.75 232.164062 C 319.5 235.386719 324.375 238.3125 326.550781 242.8125 C 328.800781 247.6875 329.773438 255.335938 328.199219 260.664062 C 326.625 265.914062 321.675781 272.0625 317.175781 274.539062 C 313.199219 276.789062 307.875 275.8125 303.226562 276.039062 C 298.574219 276.335938 293.773438 276.113281 289.050781 276.113281 C 284.398438 276.113281 279.898438 276.113281 275.101562 276.113281 C 270 276.039062 264.601562 276.039062 259.273438 276.039062 C 253.726562 276.039062 248.324219 276.039062 242.550781 275.960938 C 236.398438 275.886719 229.351562 275.8125 223.351562 275.738281 C 218.023438 275.738281 213.148438 275.960938 208.199219 275.664062 C 203.175781 275.363281 198.375 274.460938 193.425781 274.085938 C 188.324219 273.710938 182.550781 273.863281 177.976562 273.488281 C 174.375 273.261719 170.023438 272.136719 168.300781 272.363281 C 167.699219 272.4375 167.550781 272.664062 167.101562 272.8125 C 166.574219 273.039062 165.300781 273.5625 165.226562 273.5625 C 165.226562 273.5625 163.949219 273.710938 163.273438 273.789062 C 162.601562 273.863281 162.148438 273.9375 161.25 274.011719 C 159.675781 274.164062 157.199219 274.539062 154.5 274.613281 C 150.523438 274.835938 144.523438 274.460938 139.648438 274.613281 C 134.851562 274.6875 130.050781 276.863281 125.476562 275.363281 C 120 273.488281 111.824219 266.960938 109.800781 261.9375 C 108.148438 257.960938 111.898438 251.4375 110.851562 248.960938 C 110.25 247.613281 109.050781 247.761719 107.925781 246.5625 C 105.675781 244.085938 102.300781 237.710938 99.226562 233.738281 C 96.226562 229.761719 92.773438 226.539062 89.699219 222.636719 C 86.550781 218.511719 83.851562 214.011719 80.625 209.585938 C 77.101562 204.789062 72.898438 199.914062 69.148438 195.113281 C 65.550781 190.460938 58.574219 181.238281 58.574219 181.238281 " clip-rule="nonzero"/></clipPath><clipPath id="f12a72775d"><path d="M 124 120.125 L 310.4375 120.125 L 310.4375 127 L 124 127 Z M 124 120.125 " clip-rule="nonzero"/></clipPath><clipPath id="e19b3e21f5"><path d="M 64.4375 184 L 251 184 L 251 191 L 64.4375 191 Z M 64.4375 184 " clip-rule="nonzero"/></clipPath><clipPath id="8a6e14a473"><path d="M 124 248 L 310.4375 248 L 310.4375 255 L 124 255 Z M 124 248 " clip-rule="nonzero"/></clipPath><clipPath id="38dea6c31f"><path d="M 57.28125 104.738281 L 133 104.738281 L 133 262.308594 L 57.28125 262.308594 Z M 57.28125 104.738281 " clip-rule="nonzero"/></clipPath><clipPath id="48f6b5be22"><path d="M 76.726562 153.523438 C 87.226562 147 87 145.273438 87.976562 144 C 89.101562 142.648438 91.050781 141.898438 92.476562 140.476562 C 94.125 138.824219 95.175781 136.726562 97.125 134.550781 C 100.050781 131.398438 105.074219 126.976562 108.675781 124.050781 C 111.601562 121.648438 114.898438 120.375 117.074219 117.824219 C 119.101562 115.425781 119.023438 110.398438 121.351562 109.199219 C 123.75 108 130.800781 109.125 131.476562 111.074219 C 132.449219 113.851562 121.273438 122.699219 117 128.023438 C 113.324219 132.601562 109.875 138.226562 107.175781 141.074219 C 105.675781 142.574219 105 143.925781 103.273438 144.300781 C 100.949219 144.824219 94.726562 144.074219 94.050781 142.125 C 92.925781 138.75 108.449219 120.976562 110.925781 121.574219 C 112.199219 121.875 111.148438 126.675781 112.351562 127.949219 C 113.398438 129 116.925781 127.949219 117.226562 129 C 117.976562 131.476562 103.199219 143.550781 98.476562 147.523438 C 95.851562 149.625 93.75 150.300781 92.023438 151.875 C 90.675781 153.226562 90.375 154.5 88.800781 156.226562 C 86.101562 159.375 80.175781 164.324219 76.273438 168.675781 C 72.375 172.949219 67.050781 182.324219 65.324219 181.875 C 64.425781 181.648438 63.824219 176.773438 64.351562 176.398438 C 64.949219 176.023438 67.648438 178.050781 68.550781 179.324219 C 69.375 180.601562 68.851562 182.550781 69.601562 183.898438 C 70.351562 185.324219 72.601562 186.226562 73.351562 187.726562 C 74.101562 189.148438 73.351562 190.648438 74.023438 192.75 C 75.148438 196.648438 79.050781 204.523438 81.898438 208.800781 C 84.148438 212.101562 87.074219 213.898438 89.023438 216.824219 C 90.976562 219.675781 91.5 223.199219 93.75 226.125 C 96.375 229.574219 101.101562 231.976562 104.476562 235.648438 C 108.148438 239.851562 111.898438 247.050781 114.824219 250.273438 C 116.550781 252.148438 118.648438 252.824219 119.398438 254.25 C 120 255.300781 120.300781 256.425781 120 257.550781 C 119.699219 258.824219 118.425781 260.851562 117.148438 261.449219 C 115.800781 262.050781 113.476562 261.976562 112.273438 261.226562 C 111 260.550781 109.875 258.449219 109.648438 257.101562 C 109.5 256.050781 109.949219 254.773438 110.476562 253.875 C 111.074219 253.050781 112.050781 252.148438 113.101562 251.851562 C 114.449219 251.476562 116.773438 251.851562 117.976562 252.523438 C 118.875 253.125 119.550781 254.25 119.851562 255.300781 C 120.148438 256.273438 120.226562 257.625 119.699219 258.601562 C 119.175781 259.800781 117.375 261.375 116.101562 261.824219 C 114.976562 262.199219 113.925781 261.976562 112.726562 261.523438 C 110.851562 260.773438 108.300781 258.523438 106.425781 256.351562 C 104.175781 253.800781 103.050781 249.824219 100.574219 246.675781 C 97.875 243.074219 93.148438 238.425781 90.449219 236.175781 C 88.949219 234.898438 87.75 234.976562 86.476562 233.550781 C 84.449219 231.226562 82.875 224.925781 81 222.375 C 79.800781 220.726562 78.75 220.5 77.324219 218.773438 C 74.773438 215.699219 70.273438 209.101562 68.023438 204.300781 C 66 200.175781 65.773438 194.773438 64.050781 191.925781 C 62.925781 189.976562 61.351562 189.226562 60.300781 187.726562 C 59.25 186.226562 58.125 184.648438 57.75 182.773438 C 57.300781 180.675781 57.300781 177.300781 58.125 175.5 C 58.800781 174 60.226562 173.699219 61.425781 172.273438 C 63.300781 170.101562 64.875 166.875 67.726562 163.5 C 72.449219 157.949219 83.625 147 88.199219 143.175781 C 90.300781 141.375 91.199219 141.300781 93.074219 139.648438 C 96.300781 136.648438 101.699219 129.300781 105.148438 125.773438 C 107.550781 123.449219 109.125 120.976562 111.449219 120.226562 C 113.699219 119.476562 118.050781 119.625 118.949219 120.976562 C 120 122.625 117.226562 127.351562 115.648438 130.425781 C 113.925781 133.875 110.925781 138.148438 108.824219 140.699219 C 107.398438 142.425781 106.125 143.324219 104.773438 144.601562 C 103.5 145.800781 102.523438 147.523438 100.875 148.125 C 98.851562 148.875 94.648438 149.023438 93.226562 147.898438 C 92.175781 147 91.949219 144.75 92.175781 143.175781 C 92.398438 141.601562 93.449219 140.398438 94.875 138.449219 C 97.5 134.925781 104.324219 128.851562 108.148438 124.199219 C 111.449219 120.226562 114.148438 115.050781 116.699219 112.5 C 118.199219 110.925781 119.773438 110.550781 120.976562 109.351562 C 122.175781 108.226562 122.550781 106.199219 124.050781 105.523438 C 125.925781 104.625 130.425781 104.476562 131.773438 105.675781 C 132.976562 106.648438 133.199219 108.976562 132.75 111.148438 C 131.925781 114.976562 126.226562 121.949219 122.476562 125.773438 C 119.398438 129 115.050781 130.875 112.5 133.273438 C 110.625 135.148438 110.023438 136.648438 108.148438 138.675781 C 105.226562 141.75 98.773438 146.625 96.148438 149.476562 C 94.726562 151.050781 94.5 152.101562 93.148438 153.523438 C 91.125 155.550781 87.449219 158.324219 84.824219 159.824219 C 82.726562 161.023438 80.398438 162.300781 78.75 162.300781 C 77.550781 162.300781 76.425781 161.625 75.675781 161.023438 C 75.074219 160.574219 74.699219 159.976562 74.476562 159.226562 C 74.25 158.324219 74.175781 156.898438 74.550781 155.925781 C 74.925781 154.949219 76.726562 153.523438 76.726562 153.523438 " clip-rule="nonzero"/></clipPath><clipPath id="241a831858"><path d="M 301.65625 117.753906 L 329.3125 117.753906 L 329.3125 142 L 301.65625 142 Z M 301.65625 117.753906 " clip-rule="nonzero"/></clipPath><clipPath id="0041747933"><path d="M 305.398438 132.824219 C 310.125 131.476562 311.851562 129.523438 313.726562 127.726562 C 316.351562 125.175781 319.648438 119.25 322.351562 118.199219 C 324 117.523438 325.875 117.976562 327 118.574219 C 327.976562 119.023438 328.648438 120.074219 329.023438 121.050781 C 329.324219 121.949219 329.398438 123.226562 329.101562 124.199219 C 328.800781 125.175781 328.125 126.226562 327.226562 126.824219 C 326.101562 127.425781 323.925781 127.875 322.574219 127.425781 C 321.300781 126.976562 319.800781 125.25 319.5 123.976562 C 319.199219 122.625 319.875 120.449219 320.625 119.398438 C 321.300781 118.574219 322.351562 117.976562 323.398438 117.824219 C 324.675781 117.75 326.851562 118.273438 327.824219 119.25 C 328.800781 120.226562 329.324219 122.398438 329.175781 123.675781 C 329.101562 124.726562 328.5 125.324219 327.675781 126.449219 C 325.726562 128.925781 319.875 134.550781 316.648438 137.175781 C 314.398438 138.976562 312.675781 140.476562 310.574219 141.226562 C 308.773438 141.898438 306.449219 142.199219 305.023438 141.824219 C 303.898438 141.523438 302.925781 140.625 302.398438 139.875 C 301.949219 139.199219 301.726562 138.523438 301.726562 137.773438 C 301.648438 136.800781 302.023438 135.375 302.625 134.625 C 303.226562 133.800781 305.398438 132.824219 305.398438 132.824219 " clip-rule="nonzero"/></clipPath></defs><g clip-path="url(#93bbae964b)"><g clip-path="url(#0a955f6400)"><path fill="#000000" d="M 55.574219 95.886719 L 337.570312 95.886719 L 337.570312 279.113281 L 55.574219 279.113281 Z M 55.574219 95.886719 " fill-opacity="1" fill-rule="nonzero"/></g></g><path fill="#d612d4" d="M 289.902344 142.101562 L 107.148438 139.1875 L 289.902344 136.277344 L 292.8125 136.230469 L 292.8125 142.148438 Z M 289.902344 142.101562 " fill-opacity="1" fill-rule="nonzero"/><path fill="#d612d4" d="M 276.417969 158.207031 L 93.664062 155.292969 L 276.417969 152.378906 L 279.332031 152.332031 L 279.332031 158.253906 Z M 276.417969 158.207031 " fill-opacity="1" fill-rule="nonzero"/><g clip-path="url(#f12a72775d)"><path fill="#d612d4" d="M 307.5 126 L 124.75 123.085938 L 307.5 120.171875 L 310.414062 120.128906 L 310.414062 126.046875 Z M 307.5 126 " fill-opacity="1" fill-rule="nonzero"/></g><path fill="#d612d4" d="M 259.628906 174.308594 L 76.875 171.394531 L 259.628906 168.484375 L 262.542969 168.4375 L 262.542969 174.355469 Z M 259.628906 174.308594 " fill-opacity="1" fill-rule="nonzero"/><g clip-path="url(#e19b3e21f5)"><path fill="#d612d4" d="M 247.332031 190.414062 L 64.578125 187.5 L 247.332031 184.585938 L 250.246094 184.539062 L 250.246094 190.457031 Z M 247.332031 190.414062 " fill-opacity="1" fill-rule="nonzero"/></g><path fill="#d612d4" d="M 259.628906 206.515625 L 76.875 203.601562 L 259.628906 200.691406 L 262.542969 200.644531 L 262.542969 206.5625 Z M 259.628906 206.515625 " fill-opacity="1" fill-rule="nonzero"/><path fill="#d612d4" d="M 276.417969 222.617188 L 93.664062 219.707031 L 276.417969 216.792969 L 279.332031 216.746094 L 279.332031 222.664062 Z M 276.417969 222.617188 " fill-opacity="1" fill-rule="nonzero"/><path fill="#d612d4" d="M 289.902344 238.722656 L 107.148438 235.808594 L 289.902344 232.894531 L 292.8125 232.851562 L 292.8125 238.769531 Z M 289.902344 238.722656 " fill-opacity="1" fill-rule="nonzero"/><g clip-path="url(#8a6e14a473)"><path fill="#d612d4" d="M 307.5 254.824219 L 124.75 251.910156 L 307.5 249 L 310.414062 248.953125 L 310.414062 254.871094 Z M 307.5 254.824219 " fill-opacity="1" fill-rule="nonzero"/></g><g clip-path="url(#38dea6c31f)"><g clip-path="url(#48f6b5be22)"><path fill="#000000" d="M 54.75 102.523438 L 135.75 102.523438 L 135.75 264.839844 L 54.75 264.839844 Z M 54.75 102.523438 " fill-opacity="1" fill-rule="nonzero"/></g></g><g clip-path="url(#241a831858)"><g clip-path="url(#0041747933)"><path fill="#000000" d="M 298.726562 114.824219 L 332.242188 114.824219 L 332.242188 144.824219 L 298.726562 144.824219 Z M 298.726562 114.824219 " fill-opacity="1" fill-rule="nonzero"/></g></g></svg>